<svg xmlns="http://www.w3.org/2000/svg" xmlns:xlink="http://www.w3.org/1999/xlink" width="304" zoomAndPan="magnify" viewBox="0 0 228 84.749999" height="113" preserveAspectRatio="xMidYMid meet" version="1.0"><defs><g/><clipPath id="f958661c3e"><path d="M 1 14.019531 L 57.636719 14.019531 L 57.636719 61 L 1 61 Z M 1 14.019531 " clip-rule="nonzero"/></clipPath></defs><g clip-path="url(#f958661c3e)"><path fill="#ffffff" d="M 1.34375 27.523438 C 1.34375 20.03125 7.777344 14.019531 15.402344 14.738281 C 22.046875 15.363281 26.988281 21.214844 26.988281 27.898438 L 26.988281 34.78125 L 31.449219 34.78125 L 31.449219 27.929688 C 31.449219 21.125 36.566406 15.191406 43.34375 14.710938 C 51.148438 14.15625 57.621094 20.640625 57.066406 28.457031 C 56.582031 35.246094 50.660156 40.367188 43.867188 40.367188 L 39.816406 40.367188 L 39.816406 38.933594 C 39.816406 36.640625 41.671875 34.78125 43.960938 34.78125 C 48.078125 34.78125 51.617188 31.476562 51.519531 27.347656 C 51.429688 23.484375 48.308594 20.355469 44.445312 20.265625 C 40.328125 20.167969 37.027344 23.710938 37.027344 27.835938 L 37.027344 47.625 C 37.027344 51.617188 40.253906 54.878906 44.238281 54.882812 C 54.757812 54.898438 57.097656 47.625 57.097656 47.625 C 57.097656 55.113281 50.660156 61.128906 43.039062 60.410156 C 36.394531 59.785156 31.449219 53.933594 31.449219 47.25 L 31.449219 40.363281 L 14.480469 40.363281 C 10.359375 40.363281 6.824219 43.667969 6.921875 47.796875 C 7.011719 51.664062 10.132812 54.789062 13.992188 54.882812 C 18.113281 54.980469 21.414062 51.433594 21.414062 47.308594 C 21.414062 45.015625 23.269531 43.15625 25.558594 43.15625 L 26.988281 43.15625 L 26.988281 47.214844 C 26.988281 54.019531 21.878906 59.953125 15.101562 60.433594 C 7.296875 60.992188 0.824219 54.507812 1.375 46.691406 C 1.855469 39.90625 7.777344 34.785156 14.574219 34.785156 L 21.414062 34.785156 L 21.414062 27.523438 C 21.414062 23.542969 18.207031 20.277344 14.230469 20.265625 C 3.84375 20.234375 1.34375 27.523438 1.34375 27.523438 Z M 1.34375 27.523438 " fill-opacity="1" fill-rule="nonzero"/></g><g fill="#ffffff" fill-opacity="1"><g transform="translate(65.301015, 32.475766)"><g><path d="M 5.238281 -4.527344 C 5.535156 -5.265625 5.535156 -5.265625 8.78125 -5.265625 C 12.054688 -5.265625 12.054688 -5.265625 12.410156 -4.390625 L 12.65625 -3.765625 C 13.5 -1.609375 11.617188 -2.019531 11.617188 -0.871094 C 11.617188 -0.21875 12.054688 0 13.035156 0 L 18.027344 0 C 19.148438 0 19.527344 -0.21875 19.527344 -0.871094 C 19.527344 -1.992188 18.4375 -1.527344 17.511719 -3.765625 L 11.753906 -18.300781 C 11.507812 -18.847656 11.15625 -19.09375 10.582031 -19.09375 L 7.199219 -19.09375 C 6.65625 -19.09375 6.273438 -18.847656 6.273438 -18.273438 C 6.273438 -17.15625 7.910156 -17.238281 7.171875 -15.382812 L 2.398438 -3.601562 C 1.636719 -1.691406 0.0820312 -1.882812 0.0820312 -0.816406 C 0.0820312 -0.191406 0.683594 -0.0273438 1.636719 -0.0273438 L 4.199219 -0.0273438 C 4.964844 -0.0273438 5.5625 -0.164062 5.5625 -0.816406 C 5.5625 -1.882812 4.007812 -1.554688 4.855469 -3.601562 Z M 8.808594 -7.253906 C 6.328125 -7.253906 6.328125 -7.253906 6.683594 -8.15625 L 8.835938 -13.554688 L 10.992188 -7.992188 C 11.265625 -7.253906 11.265625 -7.253906 8.808594 -7.253906 Z M 8.808594 -7.253906 "/></g></g></g><g fill="#ffffff" fill-opacity="1"><g transform="translate(85.231301, 32.475766)"><g><path d="M 25.257812 -19.09375 C 24.492188 -19.09375 23.890625 -18.957031 23.890625 -18.300781 C 23.890625 -17.238281 25.390625 -17.59375 24.683594 -15.464844 L 21.300781 -5.292969 L 18.191406 -15.382812 C 17.59375 -17.375 19.011719 -17.210938 19.011719 -18.273438 C 19.011719 -18.902344 18.519531 -19.09375 17.671875 -19.09375 L 12.710938 -19.09375 C 11.890625 -19.09375 11.429688 -18.957031 11.429688 -18.273438 C 11.429688 -17.210938 12.738281 -17.457031 13.390625 -15.382812 L 13.746094 -14.183594 L 10.527344 -5.128906 L 7.171875 -15.382812 C 6.519531 -17.375 7.9375 -17.210938 7.9375 -18.273438 C 7.9375 -18.902344 7.445312 -19.09375 6.601562 -19.09375 L 1.636719 -19.09375 C 0.84375 -19.09375 0.355469 -18.957031 0.355469 -18.273438 C 0.355469 -17.210938 1.664062 -17.457031 2.371094 -15.410156 L 7.609375 -0.464844 C 7.828125 0.136719 8.265625 0.246094 9.601562 0.0546875 C 10.882812 -0.136719 11.183594 -0.519531 11.320312 -0.925781 L 14.753906 -11.15625 L 18.355469 -0.464844 C 18.546875 0.136719 18.984375 0.300781 20.429688 0.0546875 C 21.710938 -0.136719 22.011719 -0.546875 22.148438 -0.953125 L 27.109375 -15.464844 C 27.792969 -17.429688 29.375 -17.238281 29.375 -18.300781 C 29.375 -18.929688 28.773438 -19.09375 27.820312 -19.09375 Z M 25.257812 -19.09375 "/></g></g></g><g fill="#ffffff" fill-opacity="1"><g transform="translate(114.595068, 32.475766)"><g><path d="M 8.617188 0.246094 C 12.355469 0.246094 15.984375 -1.882812 15.957031 -5.617188 C 15.957031 -8.589844 13.582031 -9.683594 10.335938 -11.347656 C 7.390625 -12.875 6.027344 -13.773438 6.027344 -15.328125 C 6.027344 -16.554688 6.875 -17.429688 8.402344 -17.429688 C 10.363281 -17.429688 11.78125 -15.765625 12.710938 -14.457031 C 13.308594 -13.582031 13.636719 -13.171875 14.101562 -13.171875 C 14.726562 -13.171875 14.945312 -13.691406 14.890625 -14.539062 C 14.835938 -15.683594 14.644531 -16.855469 14.429688 -17.917969 C 14.183594 -19.09375 13.800781 -19.335938 13.308594 -19.335938 C 12.710938 -19.335938 12.574219 -18.929688 11.863281 -18.929688 C 11.292969 -18.929688 10.089844 -19.335938 8.699219 -19.335938 C 4.746094 -19.335938 1.691406 -16.855469 1.691406 -13.664062 C 1.691406 -10.5 3.820312 -9.4375 6.925781 -7.828125 C 9.164062 -6.65625 11.347656 -5.589844 11.347656 -3.898438 C 11.320312 -2.835938 10.636719 -1.773438 8.945312 -1.773438 C 5.890625 -1.773438 4.226562 -3.953125 3.4375 -5.347656 C 2.863281 -6.246094 2.671875 -6.601562 2.128906 -6.601562 C 1.582031 -6.601562 1.417969 -6.109375 1.445312 -5.265625 C 1.5 -4.035156 1.691406 -2.726562 1.9375 -1.199219 C 2.128906 -0.0273438 2.507812 0.273438 3 0.273438 C 3.601562 0.273438 3.683594 -0.328125 4.582031 -0.328125 C 5.265625 -0.328125 6.601562 0.246094 8.617188 0.246094 Z M 8.617188 0.246094 "/></g></g></g><g fill="#ffffff" fill-opacity="1"><g transform="translate(65.301015, 60.122193)"><g><path d="M 15.601562 -6.164062 C 15.136719 -6.273438 14.753906 -6.054688 14.292969 -5.128906 C 13.308594 -3.136719 12.710938 -1.992188 11.046875 -1.992188 L 9.355469 -1.964844 C 7.417969 -1.964844 7.035156 -2.34375 7.035156 -3.21875 L 7.035156 -8.699219 C 7.035156 -9.820312 7.636719 -10.035156 8.753906 -10.035156 L 8.808594 -10.035156 C 11.183594 -10.035156 11.375 -7.007812 12.820312 -7.308594 C 13.390625 -7.445312 13.582031 -7.691406 13.363281 -8.644531 L 12.65625 -12.136719 C 12.546875 -12.574219 12.382812 -12.929688 11.78125 -12.929688 C 10.773438 -12.929688 10.800781 -11.972656 8.808594 -11.972656 L 8.753906 -11.972656 C 7.636719 -11.972656 7.035156 -12.21875 7.035156 -13.308594 L 7.035156 -15.875 C 7.035156 -16.746094 7.417969 -17.128906 9.136719 -17.128906 L 10.308594 -17.128906 C 12.027344 -17.128906 13.171875 -16.253906 14.320312 -14.539062 C 14.78125 -13.828125 15.164062 -13.609375 15.710938 -13.800781 C 16.226562 -13.964844 16.308594 -14.484375 16.144531 -15.300781 C 15.929688 -16.417969 15.683594 -17.347656 15.410156 -18.082031 C 15.109375 -18.929688 14.617188 -19.09375 13.011719 -19.09375 L 2.265625 -19.09375 C 1.089844 -19.09375 0.65625 -18.875 0.65625 -18.21875 C 0.65625 -16.582031 2.535156 -17.78125 2.535156 -14.019531 L 2.535156 -5.074219 C 2.535156 -1.308594 0.65625 -2.507812 0.65625 -0.871094 C 0.65625 -0.21875 1.089844 0 2.265625 0 L 13.527344 0 C 15.136719 0 15.601562 -0.355469 15.847656 -1.226562 C 16.066406 -2.019531 16.226562 -3.136719 16.28125 -4.746094 C 16.308594 -5.589844 16.253906 -6 15.601562 -6.164062 Z M 15.601562 -6.164062 "/></g></g></g><g fill="#ffffff" fill-opacity="1"><g transform="translate(82.504845, 60.122193)"><g><path d="M 12.902344 -9.710938 C 14.457031 -11.5625 15.546875 -11.128906 15.546875 -12.328125 C 15.546875 -12.902344 15.054688 -13.089844 14.210938 -13.089844 L 11.699219 -13.089844 C 10.9375 -13.089844 10.445312 -12.957031 10.445312 -12.328125 C 10.445312 -11.128906 12.082031 -11.5625 10.5 -9.710938 L 9.574219 -8.589844 L 8.753906 -9.65625 C 7.28125 -11.589844 8.890625 -11.128906 8.890625 -12.328125 C 8.890625 -12.902344 8.402344 -13.089844 7.582031 -13.089844 L 2.046875 -13.089844 C 1.28125 -13.089844 0.789062 -12.957031 0.789062 -12.328125 C 0.789062 -11.128906 1.910156 -11.589844 3.382812 -9.65625 L 5.890625 -6.355469 L 3.519531 -3.410156 C 1.964844 -1.527344 0.871094 -1.964844 0.871094 -0.789062 C 0.871094 -0.191406 1.363281 0 2.210938 0 L 4.71875 0 C 5.480469 0 5.972656 -0.136719 5.972656 -0.765625 C 5.972656 -1.964844 4.363281 -1.5 5.863281 -3.4375 L 6.980469 -4.910156 L 8.101562 -3.4375 C 9.574219 -1.5 7.964844 -1.964844 7.964844 -0.789062 C 7.964844 -0.191406 8.453125 0 9.300781 0 L 14.808594 0 C 15.574219 0 16.066406 -0.136719 16.066406 -0.765625 C 16.066406 -1.964844 14.945312 -1.5 13.472656 -3.4375 L 10.71875 -7.0625 Z M 12.902344 -9.710938 "/></g></g></g><g fill="#ffffff" fill-opacity="1"><g transform="translate(99.08161, 60.122193)"><g><path d="M 15.519531 -2.292969 C 14.863281 -2.265625 14.566406 -2.808594 14.292969 -3.765625 L 12.902344 -8.507812 C 12.246094 -10.71875 11.292969 -13.363281 7.554688 -13.363281 C 4.882812 -13.363281 2.753906 -11.890625 2.046875 -10.664062 C 1.609375 -9.902344 2.265625 -9.492188 2.78125 -9.820312 C 3.683594 -10.308594 4.855469 -10.828125 5.917969 -10.828125 C 7.773438 -10.828125 8.429688 -9.574219 8.890625 -8.101562 C 8.019531 -8.183594 7.582031 -8.238281 7.089844 -8.238281 C 2.945312 -8.238281 0.683594 -6.300781 0.683594 -3.710938 C 0.683594 -1.445312 2.671875 0.21875 5.5625 0.21875 C 7.199219 0.21875 9.027344 -0.328125 10.417969 -1.746094 C 10.910156 -0.355469 11.78125 0.21875 12.957031 0.21875 C 14.292969 0.21875 16.011719 -0.738281 16.011719 -1.773438 C 16.011719 -2.101562 15.820312 -2.316406 15.519531 -2.292969 Z M 7.445312 -1.9375 C 5.808594 -1.9375 4.71875 -3 4.71875 -4.445312 C 4.71875 -5.78125 5.78125 -6.683594 7.5 -6.683594 C 8.402344 -6.683594 9.082031 -6.410156 9.300781 -5.78125 C 9.574219 -4.964844 9.820312 -4.28125 9.875 -3.898438 C 10.089844 -2.835938 8.808594 -1.9375 7.445312 -1.9375 Z M 7.445312 -1.9375 "/></g></g></g><g fill="#ffffff" fill-opacity="1"><g transform="translate(115.113084, 60.122193)"><g><path d="M 23.863281 -7.800781 C 23.15625 -11.101562 22.308594 -13.363281 18.902344 -13.363281 C 17.15625 -13.363281 15.601562 -12.519531 14.589844 -10.964844 C 13.882812 -12.464844 12.546875 -13.363281 10.363281 -13.363281 C 8.644531 -13.363281 7.035156 -12.546875 5.945312 -10.9375 L 5.945312 -12.4375 C 5.945312 -13.035156 5.753906 -13.363281 5.265625 -13.363281 C 4.800781 -13.335938 2.726562 -12.738281 1.664062 -12.246094 C 1.007812 -11.945312 0.765625 -11.726562 0.765625 -11.238281 C 0.765625 -10.800781 1.035156 -10.582031 1.28125 -10.390625 C 1.71875 -10.007812 2.128906 -9.601562 2.128906 -8.917969 L 2.128906 -3.871094 C 2.128906 -1.390625 0.765625 -2.074219 0.765625 -0.789062 C 0.765625 -0.191406 1.253906 0 2.074219 0 L 6.492188 0 C 7.28125 0 7.746094 -0.136719 7.746094 -0.765625 C 7.746094 -2.074219 6.410156 -1.390625 6.410156 -3.871094 L 6.410156 -7.554688 C 6.410156 -9.492188 7.636719 -10.71875 8.890625 -10.71875 C 10.636719 -10.746094 10.882812 -9.136719 10.882812 -7.335938 L 10.882812 -3.871094 C 10.882812 -1.390625 9.519531 -2.074219 9.519531 -0.789062 C 9.519531 -0.191406 10.007812 0 10.855469 0 L 15.246094 0 C 16.039062 0 16.5 -0.136719 16.5 -0.765625 C 16.5 -2.074219 15.164062 -1.390625 15.164062 -3.871094 L 15.164062 -7.554688 C 15.164062 -9.574219 16.253906 -10.636719 17.429688 -10.636719 C 19.011719 -10.664062 19.308594 -9.191406 19.609375 -7.691406 L 20.484375 -3.492188 C 20.863281 -1.71875 19.417969 -1.746094 19.417969 -0.789062 C 19.417969 -0.191406 19.910156 0 20.753906 0 L 25.011719 0 C 25.800781 0 26.265625 -0.136719 26.265625 -0.765625 C 26.265625 -1.800781 25.203125 -1.554688 24.847656 -3.21875 Z M 23.863281 -7.800781 "/></g></g></g><g fill="#ffffff" fill-opacity="1"><g transform="translate(141.423233, 60.122193)"><g><path d="M 6.925781 -6.898438 C 7.527344 -6.898438 7.773438 -7.0625 7.9375 -7.664062 L 8.074219 -8.183594 C 8.265625 -8.808594 7.9375 -8.972656 7.335938 -8.972656 L 2.371094 -8.972656 C 1.773438 -8.972656 1.527344 -8.808594 1.363281 -8.210938 L 1.199219 -7.664062 C 1.035156 -7.0625 1.363281 -6.898438 1.964844 -6.898438 Z M 6.925781 -6.898438 "/></g></g></g><g fill="#ffffff" fill-opacity="1"><g transform="translate(150.693133, 60.122193)"><g><path d="M 2.265625 -19.09375 C 1.089844 -19.09375 0.65625 -18.875 0.65625 -18.21875 C 0.65625 -16.582031 2.535156 -17.78125 2.535156 -14.019531 L 2.535156 -4.855469 C 2.535156 -1.527344 0.65625 -2.34375 0.65625 -0.871094 C 0.65625 -0.21875 1.089844 0 2.265625 0 L 7.253906 0 C 8.480469 0 8.863281 -0.21875 8.863281 -0.871094 C 8.863281 -2.34375 7.035156 -1.527344 7.035156 -4.855469 L 7.035156 -5.128906 C 7.035156 -5.617188 7.199219 -5.671875 7.582031 -5.671875 L 9.382812 -5.671875 C 14.835938 -5.671875 17.78125 -7.636719 17.78125 -11.78125 C 17.78125 -16.226562 14.347656 -19.09375 8.589844 -19.09375 Z M 9.136719 -7.554688 C 7.582031 -7.554688 7.035156 -7.800781 7.035156 -8.480469 L 7.035156 -16.527344 C 7.035156 -17.101562 7.144531 -17.265625 8.535156 -17.265625 C 10.882812 -17.265625 13.253906 -15.246094 13.253906 -11.402344 C 13.253906 -9.027344 11.753906 -7.554688 9.136719 -7.554688 Z M 9.136719 -7.554688 "/></g></g></g><g fill="#ffffff" fill-opacity="1"><g transform="translate(168.878497, 60.122193)"><g><path d="M 9.65625 -13.363281 C 8.453125 -13.363281 7.035156 -12.738281 5.945312 -11.101562 L 5.945312 -12.4375 C 5.945312 -13.035156 5.753906 -13.363281 5.265625 -13.363281 C 4.800781 -13.335938 2.726562 -12.738281 1.664062 -12.246094 C 1.007812 -11.945312 0.765625 -11.726562 0.765625 -11.238281 C 0.765625 -10.800781 1.035156 -10.582031 1.28125 -10.390625 C 1.71875 -10.007812 2.128906 -9.601562 2.128906 -8.917969 L 2.128906 -3.871094 C 2.128906 -1.390625 0.765625 -2.074219 0.765625 -0.789062 C 0.765625 -0.191406 1.253906 0 2.074219 0 L 6.492188 0 C 7.28125 0 7.746094 -0.136719 7.746094 -0.765625 C 7.746094 -2.074219 6.410156 -1.390625 6.410156 -3.871094 L 6.410156 -7.636719 C 6.410156 -9.410156 7.171875 -10.28125 8.046875 -10.28125 C 9.410156 -10.28125 9.328125 -8.753906 10.773438 -8.753906 C 11.589844 -8.753906 12.21875 -9.519531 12.21875 -10.773438 C 12.21875 -12.300781 11.265625 -13.363281 9.65625 -13.363281 Z M 9.65625 -13.363281 "/></g></g></g><g fill="#ffffff" fill-opacity="1"><g transform="translate(181.829096, 60.122193)"><g><path d="M 13.117188 -4.5 C 12.136719 -3.574219 10.882812 -2.753906 9.300781 -2.753906 C 7.390625 -2.753906 6.273438 -3.710938 5.699219 -4.773438 C 8.375 -5.808594 10.253906 -6.601562 12.957031 -7.910156 C 13.417969 -8.128906 13.636719 -8.535156 13.582031 -8.945312 C 13.253906 -11.265625 11.429688 -13.363281 7.992188 -13.363281 C 4.308594 -13.363281 0.871094 -10.390625 0.871094 -6.164062 C 0.871094 -2.371094 3.519531 0.273438 7.417969 0.273438 C 11.15625 0.273438 13.5 -2.101562 14.019531 -3.710938 C 14.292969 -4.554688 13.71875 -5.074219 13.117188 -4.5 Z M 6.628906 -11.320312 C 7.855469 -11.644531 9.054688 -10.746094 9.492188 -9.21875 C 9.738281 -8.402344 9.273438 -8.238281 8.808594 -8.019531 C 7.609375 -7.445312 6.328125 -6.980469 5.074219 -6.546875 C 4.9375 -6.980469 4.828125 -7.71875 4.828125 -8.292969 C 4.828125 -9.902344 5.480469 -11.046875 6.628906 -11.320312 Z M 6.628906 -11.320312 "/></g></g></g><g fill="#ffffff" fill-opacity="1"><g transform="translate(196.551874, 60.122193)"><g><path d="M 10.226562 -13.363281 C 8.074219 -13.363281 6.683594 -12.355469 5.808594 -11.15625 L 5.808594 -12.4375 C 5.808594 -13.035156 5.617188 -13.363281 5.128906 -13.363281 C 4.691406 -13.363281 2.617188 -12.765625 1.527344 -12.246094 C 0.871094 -11.945312 0.628906 -11.753906 0.628906 -11.265625 C 0.628906 -10.828125 0.925781 -10.609375 1.144531 -10.390625 C 1.609375 -10.035156 1.992188 -9.628906 1.992188 -8.945312 L 1.992188 1.582031 C 1.992188 4.0625 0.628906 3.382812 0.628906 4.691406 C 0.628906 5.265625 1.117188 5.453125 1.964844 5.453125 L 6.382812 5.453125 C 7.144531 5.453125 7.636719 5.320312 7.636719 4.691406 C 7.636719 3.382812 6.273438 4.0625 6.273438 1.582031 L 6.273438 -0.710938 C 7.171875 -0.191406 8.347656 0.273438 9.683594 0.273438 C 12.273438 0.273438 15.765625 -1.910156 15.765625 -7.089844 C 15.765625 -11.128906 13.144531 -13.363281 10.226562 -13.363281 Z M 9.328125 -1.664062 C 7.773438 -1.664062 6.355469 -3.191406 6.300781 -5.78125 L 6.273438 -7.5 C 6.246094 -9.464844 7.28125 -10.855469 8.617188 -10.855469 C 10.582031 -10.855469 11.644531 -8.238281 11.644531 -5.320312 C 11.644531 -3.710938 11.046875 -1.664062 9.328125 -1.664062 Z M 9.328125 -1.664062 "/></g></g></g></svg>